PathFileType	4	(X/Y/Z)	C:/Users/beibeiliu/ov580/test_trc/User1\sequence.38_training_dense_right.trc
DataRate	CameraRate	NumFrames	NumMarkers	Units	OrigDataRate	OrigDataStartFrame	OrigNumFrames
120	120	18	19	mm	120	63	500
Frame#	Time	ThumbCMC			ThumbMCP			ThumbIP			ThumbTip			IndexMCP			IndexPIP			IndexTip			MiddleMCP			MiddlePIP			MiddleTip			RingMCP			RingPIP			RingTip			PinkyMCP			PinkyPIP			PinkyTip			BackHand1			BackHand2			BackHand3	
		X0	Y0	Z0	X1	Y1	Z1	X2	Y2	Z2	X3	Y3	Z3	X4	Y4	Z4	X5	Y5	Z5	X6	Y6	Z6	X7	Y7	Z7	X8	Y8	Z8	X9	Y9	Z9	X10	Y10	Z10	X11	Y11	Z11	X12	Y12	Z12	X13	Y13	Z13	X14	Y14	Z14	X15	Y15	Z15	X16	Y16	Z16	X17	Y17	Z17	X18	Y18	Z18	
62	0.516667	230.305	-26.526	50.1745	207.877	-17.2316	17.9652	195.836	-23.863	-11.6322	180.809	-29.1283	-28.6534	239.019	-73.3557	-14.8252	227.111	-73.2937	-42.9978	209.285	-57.8197	-65.4015	219.987	-97.3112	-19.072	208.233	-87.9227	-47.6699	181.342	-61.9318	-59.5439	202.625	-109.085	-1.47955	195.614	-111.215	-36.0658	176.064	-98.6727	-57.8	178.795	-110.546	21.6614	173.717	-121.944	0.463393	170.143	-132.769	-24.0183	211.261	-92.0599	53.7865	210.458	-85.8295	87.6788	238.497	-68.8886	58.54	
63	0.525	230.502	-27.4924	48.07	208.517	-18.9108	16.1454	196.869	-22.4934	-10.8196	178.873	-31.0143	-31.2153	238.705	-75.391	-15.6547	231.69	-71.653	-47.7411	206.788	-60.5523	-65.0375	220.412	-98.9585	-15.1351	210.327	-95.3277	-45.1206	183.051	-70.9502	-65.1418	201.905	-110.139	-0.376493	192.537	-114.412	-32.1227	177.12	-101.415	-53.4875	177.882	-110.183	21.2414	173.953	-119.666	2.60661	166.848	-133.343	-20.7464	211.699	-95.39	51.322	210.57	-84.2528	87.304	239.851	-68.1264	58.1348	
64	0.533333	230.424	-27.1243	53.9456	210.043	-18.3673	14.0936	196.708	-21.0415	-8.43026	179.474	-32.8884	-28.4826	243.527	-74.3696	-14.4401	231.474	-72.6895	-48.1413	209.337	-61.9054	-65.4062	224.834	-99.0837	-14.7728	210.388	-99.5647	-44.8223	192.133	-78.9869	-67.6658	202.509	-110.047	-0.808479	189.981	-114.86	-35.0865	179.09	-101.144	-53.2875	178.449	-109.377	19.7307	169.622	-120.968	1.20574	161.697	-132.677	-19.1037	209.525	-95.522	51.4284	210.204	-85.6942	86.996	238.183	-69.8026	61.312	
65	0.541667	232.791	-28.2554	52.4789	210.457	-21.2371	18.6398	198.702	-23.9733	-7.26233	180.717	-32.5942	-24.6326	242.617	-76.8656	-12.9544	228.124	-77.1469	-44.2814	212.222	-65.7206	-62.8994	221.733	-105.285	-13.7741	212.972	-103.75	-42.5871	197.122	-85.7444	-67.1884	203.271	-109.498	-3.28098	193.167	-111.714	-33.2346	178.674	-95.6602	-55.1107	177.02	-109.255	18.7546	165.165	-120.085	0.373807	161.039	-128.408	-20.037	209.206	-94.2985	55.1319	210.427	-83.1274	88.1962	238.984	-74.8471	60.9909	
66	0.55	234.573	-29.3418	52.1015	211.884	-20.9438	19.5581	199.437	-26.3423	-9.87297	181.352	-35.9017	-24.0855	240.298	-79.2791	-15.6311	233.691	-77.9125	-42.7291	213.367	-64.1962	-66.6153	223.365	-104.494	-9.58529	214.398	-106.916	-42.4313	195.001	-89.2599	-69.5269	199.734	-111.559	-4.47214	188.183	-110.245	-35.3688	176.904	-93.0582	-53.0072	175.894	-108.739	20.5644	167.307	-117.458	4.71104	155.464	-128.398	-19.5946	207.526	-97.9821	52.8088	208.241	-85.5847	86.0454	238.246	-73.4233	63.26	
67	0.558333	236.791	-29.6104	52.2382	213.942	-22.2438	18.0629	199.718	-31.2162	-7.69723	181.917	-35.7304	-24.6253	240.602	-81.1727	-14.8722	232.81	-78.1007	-44.0725	212.38	-66.474	-64.6971	225.301	-105.966	-13.1754	214.557	-109.872	-40.9014	197.395	-95.2923	-67.5746	198.132	-109.71	0.400506	188.176	-108.835	-31.8977	174.083	-88.3825	-50.3865	172.955	-107.529	22.7533	165.294	-118.571	0.205325	155.631	-127.807	-17.8708	208.365	-95.1237	55.69	207.267	-86.5067	89.8696	241.224	-74.6041	60.9027	
68	0.566667	236.976	-31.1887	52.3928	215.549	-23.4936	19.9437	201.27	-27.3119	-9.86316	182.381	-37.215	-25.5987	241.092	-82.6396	-12.0387	231.051	-83.1872	-41.1161	216.564	-67.6223	-63.5486	222.475	-111.225	-10.837	214.169	-113.07	-39.1967	197.895	-99.3171	-67.7884	195.845	-110.821	-1.21803	187.206	-105.955	-32.2416	173.499	-81.142	-50.7185	173.946	-107.868	21.1243	166.761	-115.62	5.09136	156.196	-128.428	-20.0726	210.415	-94.8985	56.0253	208.715	-87.1515	86.5848	237.871	-78.0927	61.9761	
69	0.575	236.599	-37.3625	50.8617	217.315	-25.7542	19.1265	202.092	-32.9552	-10.1224	183.255	-38.8308	-22.9288	244.095	-84.9662	-15.8599	233.628	-84.3985	-42.5263	217.395	-70.3235	-63.0907	224.429	-111.511	-7.84925	216.978	-115.731	-38.8063	195.819	-103.949	-66.2758	196.419	-110.111	0.317661	186.863	-104.205	-30.8288	169.423	-78.2491	-44.4284	175.115	-108.516	19.2054	162.013	-116.312	7.76927	153.86	-126.876	-14.3043	208.09	-98.5055	54.9145	212.416	-84.1831	89.3347	240.624	-74.6254	64.9559	
70	0.583333	237.729	-37.0564	53.3137	217.763	-28.3139	17.3811	203.815	-32.0008	-10.4717	183.116	-42.5054	-24.5139	241.171	-89.6576	-15.2686	233.765	-87.1318	-42.3763	217.19	-69.6672	-65.4044	221.456	-114.683	-4.42124	218.759	-118.864	-35.5373	198.366	-109.353	-63.4539	197.878	-109.533	-0.208471	185.722	-103.861	-30.683	174.753	-75.0137	-42.5928	174.7	-109.638	19.8115	161.564	-117.402	3.76678	157.157	-127.543	-13.9399	207.499	-98.5672	54.3927	210.9	-86.9408	86.0914	241.18	-80.1348	64.3285	
71	0.591667	238.251	-37.9002	51.9958	219.964	-25.6659	16.7978	202.426	-37.5567	-7.94583	181.344	-46.6327	-25.1334	243.493	-90.0047	-12.1581	230.15	-89.3056	-41.6817	218.648	-74.2718	-61.358	225.202	-115.367	-6.95652	218.521	-121.485	-34.6244	201.041	-109.253	-67.2285	196.586	-110.465	-1.28594	181.025	-102.291	-27.8653	173.28	-68.9193	-37.9875	173.487	-107.185	23.2578	165.329	-116.17	6.27256	156.157	-126.254	-12.1743	208.463	-99.3543	59.0839	211.294	-84.339	91.6095	239.963	-76.198	67.0632	
72	0.6	238.224	-37.1996	55.4175	218.984	-29.8115	15.5566	203.176	-39.151	-8.11889	182.205	-48.7999	-22.4543	241.898	-91.8965	-7.94028	230.36	-91.2246	-41.8147	214.148	-74.5994	-60.9906	223.865	-116.489	-3.83189	214.598	-124.386	-34.303	202.468	-112.933	-62.9388	197.537	-110.903	1.29399	184.661	-99.1115	-30.2493	172.31	-68.601	-32.6953	175.36	-107.113	23.4602	162.977	-116.149	2.6205	151.391	-129.058	-14.4852	208.661	-99.3034	59.1956	209.287	-88.565	87.9765	242.176	-78.627	63.085	
73	0.608333	239.04	-40.627	52.3424	220.789	-27.2858	15.6961	203.263	-38.9993	-6.33801	184.309	-48.54	-21.8315	243.337	-93.5372	-9.33016	235.466	-92.0977	-40.167	217.831	-77.9948	-59.5393	225.196	-117.697	-2.56476	216.773	-125.457	-30.6045	202.458	-115.557	-61.9142	197.969	-110.993	1.68341	180.154	-99.898	-29.0543	173.574	-67.8895	-31.1099	173.109	-107.581	23.8078	159.521	-116.118	6.14706	150.885	-129.3	-15.3441	209.766	-98.7135	56.3657	210.572	-86.4405	90.4872	241.545	-78.1483	66.4905	
74	0.616667	238.601	-40.3589	54.008	219.591	-32.1561	16.765	204.205	-39.064	-5.08044	184	-49.8021	-20.0278	243.123	-94.0996	-8.46052	233.189	-94.0858	-40.3968	213.932	-79.1743	-57.5561	224.522	-118.51	-2.14308	214.024	-127.494	-31.8596	200.062	-119.523	-59.6961	196.263	-111.968	3.18311	179.254	-96.9577	-28.6749	173.615	-70.0224	-30.9522	172.818	-108.03	24.5388	159.532	-116.665	4.2811	152.721	-126.564	-17.0043	206.973	-101.39	57.2331	210.222	-86.6728	91.9768	241.597	-82.1483	64.2976	
75	0.625	240.236	-40.9345	53.6732	221.96	-29.1793	18.5335	206.023	-36.411	-5.21338	184.317	-48.4869	-24.5388	242.867	-95.1419	-9.81649	232.929	-94.5977	-38.5473	218.178	-79.0006	-59.53	226.69	-117.067	0.999668	217.56	-127.806	-32.6712	200.048	-118.551	-63.3714	193.966	-112.874	-0.638298	183.338	-101.499	-26.6352	174.458	-69.0689	-29.7525	173.289	-108.022	26.1718	161.204	-115.124	9.72955	151.115	-126.126	-14.1127	207.049	-101.987	58.735	209.794	-87.1034	91.7624	243.966	-82.9577	65.5844	
76	0.633333	240.872	-41.1077	55.564	222.053	-32.9419	15.3979	205.832	-39.2028	-5.64947	185.178	-46.2654	-24.5919	241.769	-96.7552	-5.0769	236.175	-95.6144	-37.4538	214.406	-79.1619	-60.4175	226.15	-119.301	-0.055879	216.041	-129.359	-31.0462	203.382	-120.571	-60.1216	197.29	-112.307	2.71276	181.342	-99.7347	-28.1663	175.104	-70.0742	-30.1595	174.635	-108.285	24.8121	162.6	-115.443	8.6485	154.091	-126.421	-16.1653	209.01	-98.5157	62.3359	208.997	-91.8441	91.2575	241.438	-81.715	70.6788	
77	0.641667	242.261	-41.6311	54.6144	221.478	-33.009	20.2336	207.638	-39.1726	-5.1615	185.798	-47.5015	-23.2694	245.959	-97.2646	-10.2298	234.597	-96.0728	-37.7314	215.27	-81.9071	-58.5387	224.651	-120.599	-0.330116	219.808	-128.606	-29.988	201.069	-122.852	-59.7868	193.082	-115.594	-0.115013	185.523	-102.764	-26.7862	177.941	-72.9681	-32.5535	170.463	-108.491	25.9216	159.125	-115.327	6.88751	149.809	-124.422	-16.9205	208.453	-100.545	59.3518	207.658	-90.8089	90.2472	238.97	-84.0143	68.4146	
78	0.65	242.899	-41.0596	56.2421	223.573	-30.5001	20.2431	207.578	-40.9984	-9.94146	186.051	-52.6337	-20.9587	243.331	-96.6271	-5.1928	236.913	-97.0908	-37.4408	216.795	-82.3664	-58.2228	225.374	-119.284	3.30393	215.599	-131.386	-27.7711	203.002	-124.957	-58.6832	194.376	-115.283	2.09423	181.162	-104.183	-27.4686	176.245	-73.5843	-32.537	170.071	-109.498	22.4669	159.45	-114.596	8.49937	153.645	-123.695	-15.6787	210.061	-102.009	61.2124	212.782	-89.8161	93.4655	240.292	-84.5231	67.6085	
79	0.658333	243.244	-42.3116	54.8054	225.578	-32.162	18.3582	209.383	-39.3923	-2.38995	189.342	-51.464	-19.4321	246.32	-97.8761	-9.19375	233.11	-98.6076	-37.919	221.854	-81.4573	-58.7554	227.238	-119.814	2.66726	218.685	-131.359	-26.8314	204.614	-125.42	-62.4529	199.086	-114.733	5.75599	185.915	-108.37	-28.0257	176.822	-77.6953	-37.2944	169.981	-108.941	23.5977	164.286	-112.914	4.5898	150.825	-120.807	-18.2543	210.385	-100.975	62.719	213.428	-90.3591	91.3518	241.962	-82.3774	69.2776	
